<svg baseProfile="full" height="270px" version="1.1" viewBox="0,0,334.0,270" width="334.0px" xmlns="http://www.w3.org/2000/svg" xmlns:ev="http://www.w3.org/2001/xml-events" xmlns:xlink="http://www.w3.org/1999/xlink"><defs><linearGradient id="gradElement" x1="0%" x2="0%" y1="0%" y2="100%"><stop offset="0" stop-color="#FFFFF0" /><stop offset="1" stop-color="#FFFFCC" /></linearGradient><linearGradient id="gradType" x1="0%" x2="0%" y1="0%" y2="100%"><stop offset="0" stop-color="#FFFFF5" /><stop offset="1" stop-color="#FFFDE0" /></linearGradient><linearGradient id="gradAttr" x1="0%" x2="0%" y1="0%" y2="100%"><stop offset="0" stop-color="#F8F8E8" /><stop offset="1" stop-color="#F0F0D8" /></linearGradient></defs><g transform="translate(30,30.0)"><rect fill="#CCCCCC" height="26" rx="3" ry="3" stroke="none" width="120" x="3" y="3" /><rect fill="#FFFFFF" height="26" rx="3" ry="3" stroke="#999966" stroke-width="1.2" width="120" x="0" y="0" /><line stroke="#333333" stroke-width="0.8" x1="3" x2="8" y1="3.0" y2="3.0" /><line stroke="#333333" stroke-width="0.8" x1="3" x2="8" y1="5.5" y2="5.5" /><line stroke="#333333" stroke-width="0.8" x1="3" x2="8" y1="8.0" y2="8.0" /><text fill="#333333" font-family="'Segoe UI', Tahoma, Geneva, Verdana, sans-serif" font-size="11" font-weight="bold" x="10" y="17.0">tns:Purchase</text><rect fill="#FFFFFF" height="14" rx="2" ry="2" stroke="#999966" stroke-width="0.8" width="14" x="104" y="6.0" /><line stroke="#999966" stroke-width="1" x1="108.0" x2="114.0" y1="13.0" y2="13.0" /><line stroke="#999966" stroke-width="1" x1="111.0" x2="111.0" y1="10.0" y2="16.0" /><text fill="#666666" font-family="'Segoe UI', Tahoma, Geneva, Verdana, sans-serif" font-size="10" font-style="italic" x="2" y="38">A completed purchase transaction linking</text><text fill="#666666" font-family="'Segoe UI', Tahoma, Geneva, Verdana, sans-serif" font-size="10" font-style="italic" x="2" y="51">a customer, a shop, and the purchased</text><text fill="#666666" font-family="'Segoe UI', Tahoma, Geneva, Verdana, sans-serif" font-size="10" font-style="italic" x="2" y="64">items.</text></g><g transform="translate(30,113.0)"><rect fill="#CCCCCC" height="26" rx="3" ry="3" stroke="none" width="120" x="3" y="3" /><rect fill="#FFFFFF" height="26" rx="3" ry="3" stroke="#999966" stroke-width="1.2" width="120" x="0" y="0" /><line stroke="#333333" stroke-width="0.8" x1="3" x2="8" y1="3.0" y2="3.0" /><line stroke="#333333" stroke-width="0.8" x1="3" x2="8" y1="5.5" y2="5.5" /><line stroke="#333333" stroke-width="0.8" x1="3" x2="8" y1="8.0" y2="8.0" /><text fill="#333333" font-family="'Segoe UI', Tahoma, Geneva, Verdana, sans-serif" font-size="11" font-weight="bold" x="10" y="17.0">tns:Customer</text><rect fill="#FFFFFF" height="14" rx="2" ry="2" stroke="#999966" stroke-width="0.8" width="14" x="104" y="6.0" /><line stroke="#999966" stroke-width="1" x1="108.0" x2="114.0" y1="13.0" y2="13.0" /><line stroke="#999966" stroke-width="1" x1="111.0" x2="111.0" y1="10.0" y2="16.0" /><text fill="#666666" font-family="'Segoe UI', Tahoma, Geneva, Verdana, sans-serif" font-size="10" font-style="italic" x="2" y="38">The buyer who made the purchase.</text></g><g transform="translate(30,170.0)"><rect fill="#CCCCCC" height="26" rx="3" ry="3" stroke="none" width="120" x="3" y="3" /><rect fill="#FFFFFF" height="26" rx="3" ry="3" stroke="#999966" stroke-width="1.2" width="120" x="0" y="0" /><line stroke="#333333" stroke-width="0.8" x1="3" x2="8" y1="3.0" y2="3.0" /><line stroke="#333333" stroke-width="0.8" x1="3" x2="8" y1="5.5" y2="5.5" /><line stroke="#333333" stroke-width="0.8" x1="3" x2="8" y1="8.0" y2="8.0" /><text fill="#333333" font-family="'Segoe UI', Tahoma, Geneva, Verdana, sans-serif" font-size="11" font-weight="bold" x="10" y="17.0">tns:Shop</text><rect fill="#FFFFFF" height="14" rx="2" ry="2" stroke="#999966" stroke-width="0.8" width="14" x="104" y="6.0" /><line stroke="#999966" stroke-width="1" x1="108.0" x2="114.0" y1="13.0" y2="13.0" /><line stroke="#999966" stroke-width="1" x1="111.0" x2="111.0" y1="10.0" y2="16.0" /><text fill="#666666" font-family="'Segoe UI', Tahoma, Geneva, Verdana, sans-serif" font-size="10" font-style="italic" x="2" y="38">The retail location where the purchase</text><text fill="#666666" font-family="'Segoe UI', Tahoma, Geneva, Verdana, sans-serif" font-size="10" font-style="italic" x="2" y="51">was made.</text></g></svg>