<svg baseProfile="full" height="854.0px" version="1.1" viewBox="0,0,904.0,854.0" width="904.0px" xmlns="http://www.w3.org/2000/svg" xmlns:ev="http://www.w3.org/2001/xml-events" xmlns:xlink="http://www.w3.org/1999/xlink"><defs><linearGradient id="gradElement" x1="0%" x2="0%" y1="0%" y2="100%"><stop offset="0" stop-color="#FFFFF0" /><stop offset="1" stop-color="#FFFFCC" /></linearGradient><linearGradient id="gradType" x1="0%" x2="0%" y1="0%" y2="100%"><stop offset="0" stop-color="#FFFFF5" /><stop offset="1" stop-color="#FFFDE0" /></linearGradient><linearGradient id="gradAttr" x1="0%" x2="0%" y1="0%" y2="100%"><stop offset="0" stop-color="#F8F8E8" /><stop offset="1" stop-color="#F0F0D8" /></linearGradient></defs><rect fill="#FFFFC0" height="778.0" rx="4" ry="4" stroke="#999966" stroke-dasharray="6,3" stroke-width="1.2" width="548.0" x="280.0" y="30.0" /><text fill="#666666" font-family="'Segoe UI', Tahoma, Geneva, Verdana, sans-serif" font-size="11" font-style="italic" x="294.0" y="44.0">Purchase</text><g transform="translate(30,383.5)"><rect fill="#CCCCCC" height="26" rx="3" ry="3" stroke="none" width="120" x="3" y="3" /><rect fill="#FFFFFF" height="26" rx="3" ry="3" stroke="#999966" stroke-width="1.2" width="120" x="0" y="0" /><text fill="#333333" font-family="'Segoe UI', Tahoma, Geneva, Verdana, sans-serif" font-size="11" font-weight="bold" x="10" y="17.0">Purchase</text><rect fill="#FFFFFF" height="14" rx="2" ry="2" stroke="#999966" stroke-width="0.8" width="14" x="104" y="6.0" /><line stroke="#999966" stroke-width="1" x1="108.0" x2="114.0" y1="13.0" y2="13.0" /><text fill="#666666" font-family="'Segoe UI', Tahoma, Geneva, Verdana, sans-serif" font-size="10" font-style="italic" x="2" y="38">A completed purchase transaction linking</text><text fill="#666666" font-family="'Segoe UI', Tahoma, Geneva, Verdana, sans-serif" font-size="10" font-style="italic" x="2" y="51">a customer, a shop, and the purchased</text><text fill="#666666" font-family="'Segoe UI', Tahoma, Geneva, Verdana, sans-serif" font-size="10" font-style="italic" x="2" y="64">items.</text></g><line stroke="#666666" stroke-width="1.2" x1="150" x2="222.0" y1="396.5" y2="396.5" /><line stroke="#666666" stroke-width="1.2" x1="222.0" x2="222.0" y1="396.5" y2="772.0" /><line stroke="#666666" stroke-width="1.2" x1="222.0" x2="294.0" y1="402.0" y2="402.0" /><line stroke="#666666" stroke-width="1.2" x1="222.0" x2="294.0" y1="772.0" y2="772.0" /><g transform="translate(294.0,393.0)"><rect fill="#FFFFFF" height="18" rx="9.0" ry="9.0" stroke="#666666" stroke-width="1.2" width="32" x="0" y="0" /><line stroke="#666666" stroke-width="1.0" x1="6.0" x2="26.0" y1="9.0" y2="9.0" /><circle cx="10.0" cy="9.0" fill="#666666" r="2.0" /><circle cx="16.0" cy="9.0" fill="#666666" r="2.0" /><circle cx="22.0" cy="9.0" fill="#666666" r="2.0" /></g><line stroke="#666666" stroke-width="1.2" x1="326.0" x2="333.5" y1="402.0" y2="402.0" /><line stroke="#666666" stroke-width="1.2" x1="333.5" x2="333.5" y1="75.0" y2="710.0" /><line stroke="#666666" stroke-width="1.2" x1="333.5" x2="341.0" y1="75.0" y2="75.0" /><line stroke="#666666" stroke-width="1.2" x1="333.5" x2="341.0" y1="128.0" y2="128.0" /><line stroke="#666666" stroke-width="1.2" x1="333.5" x2="341.0" y1="262.0" y2="262.0" /><line stroke="#666666" stroke-width="1.2" x1="333.5" x2="341.0" y1="472.0" y2="472.0" /><line stroke="#666666" stroke-width="1.2" x1="333.5" x2="341.0" y1="638.5" y2="638.5" /><line stroke="#666666" stroke-width="1.2" x1="333.5" x2="341.0" y1="710.0" y2="710.0" /><g transform="translate(341.0,62.0)"><rect fill="#CCCCCC" height="26" rx="3" ry="3" stroke="none" width="120" x="3" y="3" /><rect fill="#FFFFFF" height="26" rx="3" ry="3" stroke="#999966" stroke-width="1.2" width="120" x="0" y="0" /><line stroke="#333333" stroke-width="0.8" x1="3" x2="8" y1="3.0" y2="3.0" /><line stroke="#333333" stroke-width="0.8" x1="3" x2="8" y1="5.5" y2="5.5" /><line stroke="#333333" stroke-width="0.8" x1="3" x2="8" y1="8.0" y2="8.0" /><text fill="#333333" font-family="'Segoe UI', Tahoma, Geneva, Verdana, sans-serif" font-size="11" font-weight="bold" x="10" y="17.0">PurchaseId</text><text fill="#666666" font-family="'Segoe UI', Tahoma, Geneva, Verdana, sans-serif" font-size="10" font-style="italic" x="2" y="38">Unique identifier of the purchase.</text></g><g transform="translate(341.0,115.0)"><rect fill="#CCCCCC" height="26" rx="3" ry="3" stroke="none" width="120" x="3" y="3" /><rect fill="#FFFFFF" height="26" rx="3" ry="3" stroke="#999966" stroke-width="1.2" width="120" x="0" y="0" /><line stroke="#333333" stroke-width="0.8" x1="3" x2="8" y1="3.0" y2="3.0" /><line stroke="#333333" stroke-width="0.8" x1="3" x2="8" y1="5.5" y2="5.5" /><line stroke="#333333" stroke-width="0.8" x1="3" x2="8" y1="8.0" y2="8.0" /><text fill="#333333" font-family="'Segoe UI', Tahoma, Geneva, Verdana, sans-serif" font-size="11" font-weight="bold" x="10" y="17.0">PurchaseDate</text><text fill="#666666" font-family="'Segoe UI', Tahoma, Geneva, Verdana, sans-serif" font-size="10" font-style="italic" x="2" y="38">Date and time when the purchase was made.</text></g><rect fill="#FFFFC0" height="207.0" rx="4" ry="4" stroke="#999966" stroke-dasharray="6,3" stroke-width="1.2" width="277.0" x="537.0" y="168.0" /><text fill="#666666" font-family="'Segoe UI', Tahoma, Geneva, Verdana, sans-serif" font-size="11" font-style="italic" x="551.0" y="182.0">Customer</text><g transform="translate(341.0,249.0)"><rect fill="#CCCCCC" height="26" rx="3" ry="3" stroke="none" width="120" x="3" y="3" /><rect fill="#FFFFFF" height="26" rx="3" ry="3" stroke="#999966" stroke-width="1.2" width="120" x="0" y="0" /><text fill="#333333" font-family="'Segoe UI', Tahoma, Geneva, Verdana, sans-serif" font-size="11" font-weight="bold" x="10" y="17.0">Customer</text><rect fill="#FFFFFF" height="14" rx="2" ry="2" stroke="#999966" stroke-width="0.8" width="14" x="104" y="6.0" /><line stroke="#999966" stroke-width="1" x1="108.0" x2="114.0" y1="13.0" y2="13.0" /><text fill="#666666" font-family="'Segoe UI', Tahoma, Geneva, Verdana, sans-serif" font-size="10" font-style="italic" x="2" y="38">Information about the customer.</text></g><line stroke="#666666" stroke-width="1.2" x1="461.0" x2="506.0" y1="262.0" y2="262.0" /><line stroke="#666666" stroke-width="1.2" x1="506.0" x2="506.0" y1="262.0" y2="280.5" /><line stroke="#666666" stroke-width="1.2" x1="506.0" x2="551.0" y1="280.5" y2="280.5" /><g transform="translate(551.0,271.5)"><rect fill="#FFFFFF" height="18" rx="9.0" ry="9.0" stroke="#666666" stroke-width="1.2" width="32" x="0" y="0" /><line stroke="#666666" stroke-width="1.0" x1="6.0" x2="26.0" y1="9.0" y2="9.0" /><circle cx="10.0" cy="9.0" fill="#666666" r="2.0" /><circle cx="16.0" cy="9.0" fill="#666666" r="2.0" /><circle cx="22.0" cy="9.0" fill="#666666" r="2.0" /></g><line stroke="#666666" stroke-width="1.2" x1="583.0" x2="590.5" y1="280.5" y2="280.5" /><line stroke="#666666" stroke-width="1.2" x1="590.5" x2="590.5" y1="213.0" y2="319.0" /><line stroke="#666666" stroke-width="1.2" x1="590.5" x2="598.0" y1="213.0" y2="213.0" /><line stroke="#666666" stroke-width="1.2" x1="590.5" x2="598.0" y1="266.0" y2="266.0" /><line stroke="#999999" stroke-dasharray="5,3" stroke-width="1.2" x1="590.5" x2="598.0" y1="319.0" y2="319.0" /><g transform="translate(598.0,200.0)"><rect fill="#CCCCCC" height="26" rx="3" ry="3" stroke="none" width="120" x="3" y="3" /><rect fill="#FFFFFF" height="26" rx="3" ry="3" stroke="#999966" stroke-width="1.2" width="120" x="0" y="0" /><line stroke="#333333" stroke-width="0.8" x1="3" x2="8" y1="3.0" y2="3.0" /><line stroke="#333333" stroke-width="0.8" x1="3" x2="8" y1="5.5" y2="5.5" /><line stroke="#333333" stroke-width="0.8" x1="3" x2="8" y1="8.0" y2="8.0" /><text fill="#333333" font-family="'Segoe UI', Tahoma, Geneva, Verdana, sans-serif" font-size="11" font-weight="bold" x="10" y="17.0">CustomerId</text><text fill="#666666" font-family="'Segoe UI', Tahoma, Geneva, Verdana, sans-serif" font-size="10" font-style="italic" x="2" y="38">Unique customer identifier.</text></g><g transform="translate(598.0,253.0)"><rect fill="#CCCCCC" height="26" rx="3" ry="3" stroke="none" width="120" x="3" y="3" /><rect fill="#FFFFFF" height="26" rx="3" ry="3" stroke="#999966" stroke-width="1.2" width="120" x="0" y="0" /><line stroke="#333333" stroke-width="0.8" x1="3" x2="8" y1="3.0" y2="3.0" /><line stroke="#333333" stroke-width="0.8" x1="3" x2="8" y1="5.5" y2="5.5" /><line stroke="#333333" stroke-width="0.8" x1="3" x2="8" y1="8.0" y2="8.0" /><text fill="#333333" font-family="'Segoe UI', Tahoma, Geneva, Verdana, sans-serif" font-size="11" font-weight="bold" x="10" y="17.0">Name</text><text fill="#666666" font-family="'Segoe UI', Tahoma, Geneva, Verdana, sans-serif" font-size="10" font-style="italic" x="2" y="38">Full name of the customer.</text></g><g transform="translate(598.0,306.0)"><rect fill="#CCCCCC" height="26" rx="3" ry="3" stroke="none" width="120" x="3" y="3" /><rect fill="#FFFFFF" height="26" rx="3" ry="3" stroke="#999966" stroke-dasharray="5,3" stroke-width="1.2" width="120" x="0" y="0" /><line stroke="#333333" stroke-width="0.8" x1="3" x2="8" y1="3.0" y2="3.0" /><line stroke="#333333" stroke-width="0.8" x1="3" x2="8" y1="5.5" y2="5.5" /><line stroke="#333333" stroke-width="0.8" x1="3" x2="8" y1="8.0" y2="8.0" /><text fill="#333333" font-family="'Segoe UI', Tahoma, Geneva, Verdana, sans-serif" font-size="11" font-weight="bold" x="10" y="17.0">Email</text><text fill="#888888" font-family="'Segoe UI', Tahoma, Geneva, Verdana, sans-serif" font-size="8" font-style="italic" x="122" y="27">0..1</text><text fill="#666666" font-family="'Segoe UI', Tahoma, Geneva, Verdana, sans-serif" font-size="10" font-style="italic" x="2" y="48">Contact email address (optional).</text></g><rect fill="#FFFFC0" height="197.0" rx="4" ry="4" stroke="#999966" stroke-dasharray="6,3" stroke-width="1.2" width="253.0" x="513.0" y="383.0" /><text fill="#666666" font-family="'Segoe UI', Tahoma, Geneva, Verdana, sans-serif" font-size="11" font-style="italic" x="527.0" y="397.0">Shop</text><g transform="translate(341.0,459.0)"><rect fill="#CCCCCC" height="26" rx="3" ry="3" stroke="none" width="120" x="3" y="3" /><rect fill="#FFFFFF" height="26" rx="3" ry="3" stroke="#999966" stroke-width="1.2" width="120" x="0" y="0" /><text fill="#333333" font-family="'Segoe UI', Tahoma, Geneva, Verdana, sans-serif" font-size="11" font-weight="bold" x="10" y="17.0">Shop</text><rect fill="#FFFFFF" height="14" rx="2" ry="2" stroke="#999966" stroke-width="0.8" width="14" x="104" y="6.0" /><line stroke="#999966" stroke-width="1" x1="108.0" x2="114.0" y1="13.0" y2="13.0" /><text fill="#666666" font-family="'Segoe UI', Tahoma, Geneva, Verdana, sans-serif" font-size="10" font-style="italic" x="2" y="38">Information about the shop.</text></g><line stroke="#666666" stroke-width="1.2" x1="461.0" x2="494.0" y1="472.0" y2="472.0" /><line stroke="#666666" stroke-width="1.2" x1="494.0" x2="494.0" y1="472.0" y2="490.5" /><line stroke="#666666" stroke-width="1.2" x1="494.0" x2="527.0" y1="490.5" y2="490.5" /><g transform="translate(527.0,481.5)"><rect fill="#FFFFFF" height="18" rx="9.0" ry="9.0" stroke="#666666" stroke-width="1.2" width="32" x="0" y="0" /><line stroke="#666666" stroke-width="1.0" x1="6.0" x2="26.0" y1="9.0" y2="9.0" /><circle cx="10.0" cy="9.0" fill="#666666" r="2.0" /><circle cx="16.0" cy="9.0" fill="#666666" r="2.0" /><circle cx="22.0" cy="9.0" fill="#666666" r="2.0" /></g><line stroke="#666666" stroke-width="1.2" x1="559.0" x2="566.5" y1="490.5" y2="490.5" /><line stroke="#666666" stroke-width="1.2" x1="566.5" x2="566.5" y1="428.0" y2="534.0" /><line stroke="#666666" stroke-width="1.2" x1="566.5" x2="574.0" y1="428.0" y2="428.0" /><line stroke="#666666" stroke-width="1.2" x1="566.5" x2="574.0" y1="481.0" y2="481.0" /><line stroke="#666666" stroke-width="1.2" x1="566.5" x2="574.0" y1="534.0" y2="534.0" /><g transform="translate(574.0,415.0)"><rect fill="#CCCCCC" height="26" rx="3" ry="3" stroke="none" width="120" x="3" y="3" /><rect fill="#FFFFFF" height="26" rx="3" ry="3" stroke="#999966" stroke-width="1.2" width="120" x="0" y="0" /><line stroke="#333333" stroke-width="0.8" x1="3" x2="8" y1="3.0" y2="3.0" /><line stroke="#333333" stroke-width="0.8" x1="3" x2="8" y1="5.5" y2="5.5" /><line stroke="#333333" stroke-width="0.8" x1="3" x2="8" y1="8.0" y2="8.0" /><text fill="#333333" font-family="'Segoe UI', Tahoma, Geneva, Verdana, sans-serif" font-size="11" font-weight="bold" x="10" y="17.0">ShopId</text><text fill="#666666" font-family="'Segoe UI', Tahoma, Geneva, Verdana, sans-serif" font-size="10" font-style="italic" x="2" y="38">Unique shop identifier.</text></g><g transform="translate(574.0,468.0)"><rect fill="#CCCCCC" height="26" rx="3" ry="3" stroke="none" width="120" x="3" y="3" /><rect fill="#FFFFFF" height="26" rx="3" ry="3" stroke="#999966" stroke-width="1.2" width="120" x="0" y="0" /><line stroke="#333333" stroke-width="0.8" x1="3" x2="8" y1="3.0" y2="3.0" /><line stroke="#333333" stroke-width="0.8" x1="3" x2="8" y1="5.5" y2="5.5" /><line stroke="#333333" stroke-width="0.8" x1="3" x2="8" y1="8.0" y2="8.0" /><text fill="#333333" font-family="'Segoe UI', Tahoma, Geneva, Verdana, sans-serif" font-size="11" font-weight="bold" x="10" y="17.0">ShopName</text><text fill="#666666" font-family="'Segoe UI', Tahoma, Geneva, Verdana, sans-serif" font-size="10" font-style="italic" x="2" y="38">Display name of the shop.</text></g><g transform="translate(574.0,521.0)"><rect fill="#CCCCCC" height="26" rx="3" ry="3" stroke="none" width="120" x="3" y="3" /><rect fill="#FFFFFF" height="26" rx="3" ry="3" stroke="#999966" stroke-width="1.2" width="120" x="0" y="0" /><line stroke="#333333" stroke-width="0.8" x1="3" x2="8" y1="3.0" y2="3.0" /><line stroke="#333333" stroke-width="0.8" x1="3" x2="8" y1="5.5" y2="5.5" /><line stroke="#333333" stroke-width="0.8" x1="3" x2="8" y1="8.0" y2="8.0" /><text fill="#333333" font-family="'Segoe UI', Tahoma, Geneva, Verdana, sans-serif" font-size="11" font-weight="bold" x="10" y="17.0">Address</text><text fill="#666666" font-family="'Segoe UI', Tahoma, Geneva, Verdana, sans-serif" font-size="10" font-style="italic" x="2" y="38">Physical address of the shop.</text></g><rect fill="#FFFFC0" height="101.0" rx="4" ry="4" stroke="#999966" stroke-dasharray="6,3" stroke-width="1.2" width="295.0" x="467.0" y="588.0" /><text fill="#666666" font-family="'Segoe UI', Tahoma, Geneva, Verdana, sans-serif" font-size="11" font-style="italic" x="481.0" y="602.0">Items</text><g transform="translate(341.0,625.5)"><rect fill="#CCCCCC" height="26" rx="3" ry="3" stroke="none" width="120" x="3" y="3" /><rect fill="#FFFFFF" height="26" rx="3" ry="3" stroke="#999966" stroke-width="1.2" width="120" x="0" y="0" /><text fill="#333333" font-family="'Segoe UI', Tahoma, Geneva, Verdana, sans-serif" font-size="11" font-weight="bold" x="10" y="17.0">Items</text><rect fill="#FFFFFF" height="14" rx="2" ry="2" stroke="#999966" stroke-width="0.8" width="14" x="104" y="6.0" /><line stroke="#999966" stroke-width="1" x1="108.0" x2="114.0" y1="13.0" y2="13.0" /></g><line stroke="#666666" stroke-width="1.2" x1="461.0" x2="471.0" y1="638.5" y2="638.5" /><line stroke="#666666" stroke-width="1.2" x1="471.0" x2="471.0" y1="638.5" y2="647.5" /><line stroke="#666666" stroke-width="1.2" x1="471.0" x2="481.0" y1="647.5" y2="647.5" /><g transform="translate(481.0,638.5)"><rect fill="#FFFFFF" height="18" rx="9.0" ry="9.0" stroke="#666666" stroke-width="1.2" width="32" x="0" y="0" /><line stroke="#666666" stroke-width="1.0" x1="6.0" x2="26.0" y1="9.0" y2="9.0" /><circle cx="10.0" cy="9.0" fill="#666666" r="2.0" /><circle cx="16.0" cy="9.0" fill="#666666" r="2.0" /><circle cx="22.0" cy="9.0" fill="#666666" r="2.0" /></g><line stroke="#666666" stroke-width="1.2" x1="513.0" x2="520.5" y1="647.5" y2="647.5" /><line stroke="#666666" stroke-width="1.2" x1="520.5" x2="520.5" y1="633.0" y2="647.5" /><line stroke="#666666" stroke-width="1.2" x1="520.5" x2="528.0" y1="633.0" y2="633.0" /><g transform="translate(528.0,620.0)"><rect fill="#CCCCCC" height="26" rx="3" ry="3" stroke="none" width="120" x="3" y="3" /><rect fill="#FFFFFF" height="26" rx="3" ry="3" stroke="#999966" stroke-width="1.2" width="120" x="0" y="0" /><line stroke="#333333" stroke-width="0.8" x1="3" x2="8" y1="3.0" y2="3.0" /><line stroke="#333333" stroke-width="0.8" x1="3" x2="8" y1="5.5" y2="5.5" /><line stroke="#333333" stroke-width="0.8" x1="3" x2="8" y1="8.0" y2="8.0" /><text fill="#333333" font-family="'Segoe UI', Tahoma, Geneva, Verdana, sans-serif" font-size="11" font-weight="bold" x="10" y="17.0">Item</text><rect fill="#FFFFFF" height="14" rx="2" ry="2" stroke="#999966" stroke-width="0.8" width="14" x="104" y="6.0" /><line stroke="#999966" stroke-width="1" x1="108.0" x2="114.0" y1="13.0" y2="13.0" /><line stroke="#999966" stroke-width="1" x1="111.0" x2="111.0" y1="10.0" y2="16.0" /><text fill="#888888" font-family="'Segoe UI', Tahoma, Geneva, Verdana, sans-serif" font-size="8" font-style="italic" x="122" y="27">1..∞</text><text fill="#666666" font-family="'Segoe UI', Tahoma, Geneva, Verdana, sans-serif" font-size="10" font-style="italic" x="2" y="48">A product included in this purchase.</text></g><g transform="translate(341.0,697.0)"><rect fill="#CCCCCC" height="26" rx="3" ry="3" stroke="none" width="120" x="3" y="3" /><rect fill="#FFFFFF" height="26" rx="3" ry="3" stroke="#999966" stroke-width="1.2" width="120" x="0" y="0" /><line stroke="#333333" stroke-width="0.8" x1="3" x2="8" y1="3.0" y2="3.0" /><line stroke="#333333" stroke-width="0.8" x1="3" x2="8" y1="5.5" y2="5.5" /><line stroke="#333333" stroke-width="0.8" x1="3" x2="8" y1="8.0" y2="8.0" /><text fill="#333333" font-family="'Segoe UI', Tahoma, Geneva, Verdana, sans-serif" font-size="11" font-weight="bold" x="10" y="17.0">TotalAmount</text><text fill="#666666" font-family="'Segoe UI', Tahoma, Geneva, Verdana, sans-serif" font-size="10" font-style="italic" x="2" y="38">Total cost of all items in the purchase.</text></g><g transform="translate(294.0,750.0)"><rect fill="#F0F0E0" height="44" rx="2" ry="2" stroke="#999966" stroke-width="1" width="90" x="0" y="0" /><rect fill="#FFFFFF" height="12" rx="1" ry="1" stroke="#999966" stroke-width="0.8" width="12" x="3" y="4" /><line stroke="#999966" stroke-width="1" x1="6" x2="12" y1="10" y2="10" /><text fill="#333333" font-family="'Segoe UI', Tahoma, Geneva, Verdana, sans-serif" font-size="9" font-style="italic" x="18" y="13.0">attributes</text><line stroke="#999966" stroke-width="0.5" x1="0" x2="90" y1="20" y2="20" /><rect fill="#999966" height="10" rx="1" ry="1" width="10" x="6" y="27.0" /><text fill="#333333" font-family="'Segoe UI', Tahoma, Geneva, Verdana, sans-serif" font-size="9" font-weight="bold" x="20" y="35.0">currency</text></g></svg>